<?xml version="1.0" encoding="UTF-8" standalone="no"?>
<svg
   version="1.2"
   viewBox="0 0 1132 285.80542"
   width="1132"
   height="285.80542"
   id="svg3"
   sodipodi:docname="CCTV-1_Logo.svg"
   inkscape:version="1.4.2 (ebf0e940d0, 2025-05-08)"
   xmlns:inkscape="http://www.inkscape.org/namespaces/inkscape"
   xmlns:sodipodi="http://sodipodi.sourceforge.net/DTD/sodipodi-0.dtd"
   xmlns="http://www.w3.org/2000/svg"
   xmlns:svg="http://www.w3.org/2000/svg"
   xmlns:rdf="http://www.w3.org/1999/02/22-rdf-syntax-ns#"
   xmlns:cc="http://creativecommons.org/ns#"
   xmlns:dc="http://purl.org/dc/elements/1.1/">
  <defs
     id="defs3" />
  <sodipodi:namedview
     id="namedview3"
     pagecolor="#616161"
     bordercolor="#000000"
     borderopacity="0.25"
     inkscape:showpageshadow="2"
     inkscape:pageopacity="0.0"
     inkscape:pagecheckerboard="true"
     inkscape:deskcolor="#d1d1d1"
     inkscape:zoom="0.78994774"
     inkscape:cx="678.5259"
     inkscape:cy="78.486205"
     inkscape:window-width="1920"
     inkscape:window-height="1048"
     inkscape:window-x="1440"
     inkscape:window-y="0"
     inkscape:window-maximized="1"
     inkscape:current-layer="svg3" />
  <title
     id="title1">CCTV-1</title>
  <style
     id="style1">
		.s0 { fill: #000000 } 
		.s1 { fill: #e50000 } 
	</style>
  <path
     id="TV"
     class="s0"
     d="m 622.9,113.7 q 16.4,-35.6 33.5,-70.9 3.1,-6.5 5.3,-8.8 3.7,-4.1 8.9,-6 3.9,-1.4 13.5,-1.4 7.7,0 15.4,0 0.1,0 0.3,0 0,0.1 0.2,0.1 0,0.2 0,0.2 0,0.1 0,0.3 -35.4,74.8 -70.5,149 -2,4.3 -3.6,5.4 -3,2.3 -7.4,-0.2 -1.1,-0.8 -2.3,-3.4 -1.5,-3.5 -1.5,-3.5 -18.5,-38.8 -36.9,-77.8 -5.7,-12 -9,-16.5 -11.6,-15.9 -30.8,-20.1 -6.1,-1.3 -18.9,-1.3 -64.7,0 -129.3,0 -10.7,0 -15.6,-7.1 -4.6,-6.6 -2.1,-14.4 2.1,-6.8 9.2,-9.8 2.6,-1.2 7.2,-1.2 72.6,0 145.3,0.3 17.3,0 19,0.1 10.7,1.1 19.5,6.5 10.1,6.1 17.4,16 3.7,4.9 9.3,16.5 11.8,23.8 23,48 0.4,0.9 0.9,0 z m -0.1,80.6 q 0.4,0 1.2,0 6.9,-0.3 11.6,-4.7 2.6,-2.3 6.2,-10.1 33,-69.6 66.5,-138.9 2.7,-5.4 5.2,-7.9 3.9,-3.6 8.9,-5.2 3.3,-0.9 10.1,-0.9 8.8,0 18.1,0 0.1,0 0.1,0 0.2,0.1 0.2,0.1 0.2,0.2 0.2,0.3 0,0 0,0.2 -35,73.6 -69.9,147.2 -1.4,2.9 -6.4,14 -5.2,10.8 -6.9,13.6 -6.2,9.9 -14.6,15.4 -23.6,15.4 -49.7,6.3 -20.1,-7 -29.4,-27.3 -19.4,-41.4 -38.5,-82.9 -1.6,-3.4 -2.6,-4.9 -2.2,-3.4 -5.8,-4.8 -2,-0.7 -7.1,-0.7 -3.3,0 -6.7,0 -4.1,0 -6.6,1 -5.7,2.5 -6.9,8.3 -0.2,1.4 -0.2,10.2 0,43.6 0,87.3 0,9.1 -6.8,13.7 -5.1,3.6 -11.3,3.1 -6.7,-0.5 -11.3,-6.1 -2,-2.7 -2.8,-6.3 -0.5,-2.1 -0.5,-6.8 0,-59.7 0,-119.3 0.2,-11.9 9.6,-16.2 3.1,-1.3 8.5,-1.4 27.3,-0.6 39,0 28.3,1.7 40.5,27.5 18,37.9 35.9,75.6 5.3,11.4 7.1,13.4 5.2,6.1 14.1,7.4 0.3,0 1,-0.2 z M 374.7,77 q 3.4,-4.7 8.8,-5.9 1.7,-0.5 10.2,-0.5 21.5,0 43.1,0 5,0 8,1.3 10,4 10,16.8 0,58.8 0,117.6 0,6.9 -1.4,10.4 -2.8,7.3 -10,9.2 -7.3,2.1 -13.2,-1.4 -4.6,-2.7 -6.6,-7.7 -1.3,-3.1 -1.3,-9.6 0,-46 0,-92.1 0,-7.6 -5.8,-10.5 -2.8,-1.5 -9.5,-1.5 -8.8,0 -17.6,0.2 -13.2,0.3 -17.4,-11.2 -2.8,-7.8 2.7,-15.1 z"
     style="fill:#ffffff;fill-opacity:0.79718697" />
  <path
     id="C"
     fill-rule="evenodd"
     class="s1"
     d="m 228.1,193.2 q -27.3,-28.7 -27.2,-67.9 0,-9.6 2.1,-18.7 6.1,-27.7 26.1,-47.5 28.1,-28.1 67.6,-32.1 6,-0.4 19,-0.4 18.1,0 36.2,0 7.5,0 12.4,6.3 3.6,4.7 3.4,10 0,5.4 -3.3,9.6 -2.8,3.9 -7.5,5.5 -2.7,1 -8.8,1 -15.7,0 -31.5,0 -13.2,0 -18.8,0.7 -24.7,3.5 -42.3,20.8 -16.2,16 -19,38.7 -1.1,9.4 0.6,18.8 5.3,27.4 29.4,43.6 17.9,12.1 39.5,12.6 35.3,0.8 42.7,0.3 7.7,-0.3 12.6,3.4 5,3.8 6.3,10.3 1.2,7 -3.8,13.2 -2.7,3.1 -6.7,4.5 -2.6,0.8 -7.8,0.8 -17.4,0 -34.9,0 -12.7,0 -18.8,-0.6 -37.1,-4.1 -65,-30 -0.7,-0.7 -1.4,-1.5 -0.8,-0.9 -1.1,-1.4 z M 271.2,83.5 q 16.2,-12.8 38.1,-12.9 20.6,0 41.1,0 4,0 7.4,1.4 3.5,1.4 5.9,4.3 3.4,3.9 3.9,8.9 0.5,4.7 -1.7,9.3 -4.3,8.8 -15.5,8.8 -18.2,0 -36.6,0 -9.6,0 -13.7,1.4 -5.6,2.1 -9.9,6.5 -3.9,4.2 -5.5,9.9 -2.5,9.2 3,17.9 4.6,6.9 12.3,9.6 4.1,1.4 13.5,1.4 18.6,0 37.1,0 9.1,0 14.2,6.9 2.5,3.3 2.9,7.4 0.4,3.8 -1.1,7.7 -2.3,6.6 -8.6,9.3 -3.6,1.4 -12,1.4 -19,0 -38.2,0 -21.8,0 -39,-15.1 -17.9,-15.7 -19,-38.7 -0.8,-17.3 8.7,-31.4 5.2,-7.9 12.7,-14 z"
     style="fill:#ffffff;fill-opacity:0.79718697" />
  <path
     id="path3"
     class="s0"
     d="m 191,197.8 q 5.7,4.5 6.3,11.1 0.6,6.2 -3.1,11.4 -3.5,4.8 -9.6,6.1 -1.8,0.3 -11,0.3 -14.5,0 -29,0 -13,0 -19,-0.6 -22.9,-2.4 -43.4,-13.9 -17.4,-9.9 -30,-25.4 Q 32.9,162.9 30.8,132.7 30,123.1 31.4,113.8 34.6,91 47.6,72.3 60.1,54.6 79.4,42.8 100.6,30 125,27.2 q 6.1,-0.6 18.9,-0.6 14.3,0 28.6,0 11.1,0 13.2,0.4 7.4,1.9 10.7,9.8 2,4.7 0.3,10.4 -2.4,7.5 -8.8,10.3 -3.3,1.5 -11,1.5 -15.1,0 -30.2,0 -13.4,0 -18.9,0.7 Q 105,62.7 87.9,78 72,92.1 67.3,112.7 q -2.1,9.3 -1.4,18.7 1.7,21.9 16.3,38.2 17,19.1 42.3,23.6 6.3,1.1 18.9,1.3 19,0.1 38,0 5.4,0 9.6,3.3 z m 3.6,-40.6 q 6.3,9 -0.3,18.9 -4.4,6.3 -13,6.3 -21.9,0.3 -43.9,0.3 -17.8,0 -33,-10.4 -20.1,-13.5 -24.1,-36.6 -2.5,-14 2.4,-27.4 3.1,-8.5 9.4,-16.2 13.9,-16.8 35.7,-20.6 5.7,-0.9 18.9,-0.9 16.7,0 33.3,0 3.8,0 7.3,1.3 3.4,1.4 5.8,4 3.6,3.8 4.2,8.8 0.6,4.9 -1.6,9.3 -2.5,5.7 -8.1,8 -3.3,1.3 -10.9,1.3 -16.6,0 -33.3,0 -9.4,0 -13.5,1.4 -4.9,1.7 -8.7,5.2 -3.6,3.3 -5.6,8 -4,9.4 0.3,18.3 3.4,6.9 10,10.6 4.6,2.6 9.9,3.2 0.5,0 10.4,0 17.2,0 34.3,0 4.6,0 8.2,1.9 3.3,1.7 5.9,5.3 z"
     style="fill:#ffffff;fill-opacity:0.79718697" />
  <path
     id="Layer"
     fill-rule="evenodd"
     class="s0"
     d="m 1132,128.9 v 28 c -2.0667,20 -7.8333,38.43333 -17.3,55.3 -13.9333,24.86667 -33.6333,44.06667 -59.1,57.6 -20.6667,10.86667 -43.3,16.2 -67.9,16 -4.13333,-0.0667 -6.23333,-0.1 -6.3,-0.1 H 17.9 C 8.1666667,285.7 2.2,280.83333 0,271.1 V 266 c 1.8,-7.53333 5.8333333,-12.2 12.1,-14 1.8,-0.6 7.366667,-0.9 16.7,-0.9 h 603.9 c 10.8,0 17.13333,-0.0667 19,-0.2 20.53333,-1.13333 38.93333,-8.03333 55.2,-20.7 12.13333,-9.53333 21.5,-21.33333 28.1,-35.4 1.66667,-3.46667 3.93333,-9.4 6.8,-17.8 7.53333,-21.46667 18.9,-54 34.1,-97.6 3.8,-10.466667 8.73333,-20.166667 14.8,-29.1 3.46667,-5.133333 7.43333,-10 11.9,-14.6 C 821.8,15.966667 845.16667,4.3333333 872.7,0.8 877.36667,0.26666667 883.66667,0 891.6,0 c 36.06667,0.2 72.13333,0.46666667 108.2,0.8 4.4,0 8.1667,0.2666667 11.3,0.8 18.8667,2.9333333 36.4333,9.333333 52.7,19.2 18.8667,11.466667 34.2667,26.5 46.2,45.1 12.1333,18.733333 19.4667,39.73333 22,63 z"
     sodipodi:nodetypes="cccccsscccsscccccccccccccc"
     style="fill:#ffffff;fill-opacity:0.14179209;stroke-width:10;stroke-dasharray:none;stroke:#ffffff;stroke-opacity:0.5020963" />
  <metadata
     id="metadata3">
    <rdf:RDF>
      <cc:Work
         rdf:about="">
        <dc:title>CCTV-1</dc:title>
      </cc:Work>
    </rdf:RDF>
  </metadata>
</svg>
